<?xml version="1.0" standalone="no"?>
<!DOCTYPE svg PUBLIC "-//W3C//DTD SVG 20010904//EN"
 "http://www.w3.org/TR/2001/REC-SVG-20010904/DTD/svg10.dtd">
<svg version="1.0" xmlns="http://www.w3.org/2000/svg"
 width="700.000000pt" height="700.000000pt" viewBox="0 0 700.000000 700.000000"
 preserveAspectRatio="xMidYMid meet">
<metadata>
Created by potrace 1.11, written by Peter Selinger 2001-2013
</metadata>
<g transform="translate(0.000000,700.000000) scale(0.100000,-0.100000)"
fill="#000000" stroke="none">
<path d="M5340 4989 c-29 -12 -250 -66 -305 -75 -44 -7 -63 -10 -130 -24 -27
-6 -60 -12 -72 -14 -51 -10 -61 -23 -68 -88 -4 -35 -8 -74 -10 -88 -2 -14 -7
-63 -10 -110 -4 -47 -8 -101 -10 -120 -2 -19 -6 -69 -10 -110 -3 -41 -8 -91
-10 -110 -3 -19 -7 -71 -10 -115 -3 -44 -7 -96 -10 -115 -5 -48 -13 -130 -20
-220 -3 -41 -8 -95 -10 -120 -5 -51 -12 -133 -30 -340 -4 -41 -8 -89 -10 -107
-5 -44 15 -66 55 -65 30 1 516 161 547 180 7 5 14 43 18 95 3 48 7 102 10 120
2 17 7 59 10 92 3 33 8 78 10 100 8 79 15 151 21 215 3 36 7 75 9 86 2 12 6
61 10 110 12 168 45 232 157 304 82 54 218 87 282 69 44 -12 72 -38 91 -83 13
-30 15 -67 10 -204 -5 -164 -6 -186 -18 -287 -4 -27 -9 -84 -12 -125 -3 -41
-8 -86 -10 -100 -2 -14 -7 -59 -10 -100 -4 -41 -8 -86 -10 -100 -2 -14 -7 -59
-10 -100 -4 -41 -8 -82 -10 -90 -1 -8 -6 -46 -10 -83 -7 -79 1 -97 49 -97 25
0 321 80 509 137 21 6 19 2 22 88 3 106 15 297 19 304 2 3 7 38 10 76 4 39 9
86 11 105 2 19 6 60 9 90 3 30 8 73 10 95 3 22 8 65 11 95 2 30 8 78 11 105 4
28 6 106 6 175 -2 197 -44 332 -131 417 -68 67 -130 86 -286 88 -202 4 -389
-43 -580 -146 -69 -36 -72 -37 -70 -16 3 25 12 81 19 113 19 93 9 114 -44 93z"/>
<path d="M2517 4794 c-1 -1 -49 -5 -107 -8 -58 -4 -125 -9 -150 -11 -25 -3
-76 -7 -115 -9 -212 -14 -263 -18 -290 -23 -16 -2 -232 -6 -480 -9 -247 -2
-455 -6 -462 -8 -6 -3 -28 -35 -49 -73 -21 -37 -82 -138 -135 -223 -106 -171
-139 -231 -139 -255 0 -26 50 -37 178 -39 l122 -1 -5 -75 c-9 -138 -16 -225
-20 -265 -2 -22 -6 -89 -10 -149 -4 -60 -8 -114 -9 -120 -2 -12 1 -9 -133
-191 -102 -140 -126 -183 -111 -202 14 -17 89 -31 176 -32 l34 -1 -7 -97 c-4
-54 -9 -123 -10 -153 -2 -30 -6 -86 -9 -125 -3 -38 -9 -110 -12 -160 -4 -64
-11 -99 -24 -120 -11 -16 -25 -41 -32 -55 -7 -14 -26 -47 -44 -75 -133 -212
-135 -230 -18 -240 32 -3 78 -8 102 -10 53 -6 130 -12 237 -20 44 -3 112 -8
150 -10 266 -20 471 -28 720 -29 272 -1 271 -2 354 123 134 200 215 343 217
383 l2 38 -475 0 c-261 0 -472 3 -470 8 3 4 8 50 12 102 3 52 8 106 10 120 3
14 7 54 10 90 2 36 8 97 11 135 4 39 6 78 6 88 -1 14 8 17 46 18 171 2 341 10
367 17 27 8 37 24 112 188 173 378 174 389 21 387 -93 -1 -454 -14 -473 -16
-5 -1 -9 5 -9 13 0 18 14 166 19 200 2 14 6 59 10 100 9 116 16 154 27 161 5
4 44 7 86 8 43 1 113 4 157 6 44 2 159 6 255 10 214 7 251 12 271 33 9 9 35
67 58 127 24 61 58 146 76 190 73 176 84 252 37 257 -26 2 -83 4 -85 2z"/>
<path d="M3669 4786 c-2 -2 -31 -6 -64 -9 -179 -18 -359 -81 -523 -183 -79
-50 -212 -189 -256 -266 -36 -65 -71 -155 -83 -213 -7 -38 -6 -263 2 -335 17
-148 80 -285 182 -396 44 -47 284 -248 458 -383 155 -121 177 -148 183 -223
15 -182 -372 -243 -605 -95 -24 15 -46 27 -49 27 -4 0 -30 20 -58 43 -110 94
-128 87 -121 -42 5 -93 12 -230 21 -436 4 -71 7 -135 7 -141 1 -21 154 -89
212 -95 2 0 19 -5 37 -10 77 -22 439 -33 550 -17 280 41 581 221 727 436 202
298 176 660 -65 921 -79 85 -148 141 -319 256 -359 243 -358 242 -382 289 -20
38 -22 162 -3 196 54 102 204 138 397 96 42 -9 148 -64 199 -102 29 -22 84
-69 124 -106 39 -38 77 -68 84 -68 7 0 21 6 31 14 20 14 21 52 10 256 -2 36
-6 128 -10 205 -8 183 -11 205 -38 233 -22 24 -154 92 -179 92 -7 0 -32 7 -56
15 -24 9 -57 18 -75 20 -18 3 -57 9 -87 14 -52 8 -244 13 -251 7z"/>
</g>
</svg>
