<svg xmlns="http://www.w3.org/2000/svg" viewBox="0 0 595.28 595.28">
	<path fill="#292C64" d="M186.909,287.463c-0.416,1.458-1.196,3.511-2.341,6.165c-1.147,2.654-2.474,5.646-3.98,8.977
		c-1.509,3.332-3.123,6.894-4.84,10.692c-1.717,3.801-3.411,7.626-5.073,11.474c-0.625,1.46-1.197,2.525-1.717,3.201
		c-0.522,0.679-1.353,1.172-2.498,1.483c-1.146,0.312-2.732,0.493-4.761,0.547c-2.03,0.054-4.866,0.131-8.508,0.233l-21.699,0.469
		l-4.371,47.768h80.083v6.09c-0.21,0.21-1.093,1.587-2.654,4.137c-1.562,2.551-3.382,5.596-5.464,9.132
		c-2.084,3.538-4.269,7.103-6.556,10.693c-2.29,3.591-4.215,6.478-5.776,8.664c-1.041,1.874-2.24,3.356-3.59,4.449
		c-1.353,1.092-2.836,1.896-4.449,2.42c-1.615,0.52-3.383,0.833-5.308,0.937c-1.928,0.102-4.035,0.156-6.322,0.156
		c-9.367,0-19.124-0.211-29.27-0.625c-10.147-0.417-20.271-0.938-30.363-1.562c-10.095-0.624-19.958-1.326-29.583-2.106
		c-9.627-0.78-18.553-1.588-26.772-2.421c-0.729-0.104-1.381-0.521-1.952-1.248c-0.572-0.727-0.858-1.561-0.858-2.497
		c-0.417,0-0.132-0.883,0.858-2.654c0.989-1.77,2.366-4.06,4.137-6.868c1.77-2.811,3.721-6.011,5.854-9.602
		c2.131-3.59,4.189-7.205,6.166-10.85l2.498-35.124c0.414-5.933,0.755-10.355,1.015-13.27c0.258-2.911,0.39-4.474,0.39-4.684
		c-6.245-0.102-10.904-0.414-13.972-0.936c-3.07-0.521-4.605-1.663-4.605-3.435c0-0.833,0.754-2.394,2.263-4.684
		c1.507-2.287,3.356-4.917,5.542-7.884c2.186-2.966,4.501-6.062,6.947-9.289c2.443-3.224,4.605-6.189,6.479-8.897l3.903-53.077
		h-0.468c-2.29,0.105-4.371,0.182-6.245,0.234c-1.874,0.054-3.591,0.078-5.151,0.078c-4.995,0-8.562-0.287-10.693-0.858
		c-2.134-0.571-3.2-1.64-3.2-3.201c0-0.725,0.625-2.237,1.873-4.526c1.249-2.289,2.81-4.918,4.683-7.884
		c1.874-2.966,3.849-6.089,5.932-9.368c2.082-3.278,3.955-6.321,5.62-9.131l9.367-15.924h65.253l76.961-5.619
		c0.102,0,0.39,0.026,0.858,0.078c0.469,0.054,0.96,0.21,1.483,0.468c0.521,0.26,1.014,0.704,1.483,1.327
		c0.468,0.625,0.702,1.509,0.702,2.655l-2.341,8.117c-0.729,2.29-1.615,4.709-2.654,7.259c-1.041,2.551-2.186,5.177-3.435,7.884
		l-6.869,18.108c-0.729,1.771-1.562,3.122-2.498,4.058c-0.937,0.937-2.914,1.459-5.933,1.562c-7.909,0.21-16.729,0.546-26.46,1.015
		c-9.733,0.468-20.895,0.912-33.485,1.326c-0.416,1.459-0.624,2.63-0.624,3.513c0,0.884-0.104,2.576-0.312,5.073l-0.781,7.18
		c-0.21,3.333-0.522,6.923-0.936,10.772c-0.417,3.851-0.937,8.586-1.562,14.206c5.308-0.208,10.483-0.415,15.533-0.625
		c5.047-0.208,9.652-0.39,13.815-0.546c4.161-0.157,7.78-0.286,10.85-0.39c3.068-0.103,5.229-0.156,6.479-0.156
		c0.832,0,1.769,0.312,2.81,0.935c1.039,0.625,1.561,1.822,1.561,3.591C187.377,285.487,187.222,286.424,186.909,287.463z"/>
	<path fill="#292C64" d="M232.337,358.96c0-0.101-0.026-0.209-0.078-0.312c-0.055-0.103-0.079-0.209-0.079-0.312
		c0-1.77,0.937-2.655,2.811-2.655c0.937,0,1.975,0.47,3.122,1.406c5.621,5.308,11.864,9.522,18.733,12.644
		c6.87,3.123,14.362,4.685,22.48,4.685c2.185,0,4.683-0.235,7.493-0.702c2.81-0.469,5.464-1.25,7.961-2.342
		c2.498-1.093,4.605-2.521,6.322-4.293c1.718-1.77,2.576-4.006,2.576-6.712c0-3.02-0.729-5.724-2.187-8.12
		c-1.458-2.392-3.381-4.422-5.774-6.087c-0.937-0.625-2.342-1.663-4.215-3.122c-1.873-1.457-4.007-3.122-6.4-4.996
		c-2.396-1.873-4.893-3.876-7.494-6.01c-2.601-2.131-5.073-4.161-7.414-6.088c-2.342-1.925-4.449-3.669-6.323-5.229
		c-1.873-1.562-3.278-2.757-4.214-3.591c-6.143-4.579-11.006-9.21-14.597-13.894c-3.59-4.684-6.322-9.574-8.196-14.674
		c-1.873-5.098-3.069-10.381-3.59-15.844c-0.523-5.464-0.781-11.264-0.781-17.407c0-9.155,2.186-17.848,6.557-26.07
		c4.371-8.219,10.538-15.376,18.5-21.464c7.961-6.088,17.508-10.927,28.646-14.518c11.135-3.591,23.518-5.386,37.152-5.386
		c1.664,0,4.161,0.182,7.493,0.546c3.33,0.367,6.999,0.964,11.005,1.797c4.006,0.834,8.093,1.976,12.256,3.434
		c4.16,1.458,7.961,3.332,11.396,5.619c1.146,0.834,2.054,1.665,2.731,2.498c0.677,0.836,1.118,2.134,1.328,3.904
		c0.52,8.429,0.937,16.728,1.248,24.898c0.312,8.172,0.727,16.836,1.249,25.992c0,1.771-0.366,2.942-1.093,3.512
		c-0.728,0.572-1.665,0.859-2.811,0.859c-1.146,0-2.028-0.313-2.653-0.937c-3.02-3.018-6.143-5.984-9.366-8.898
		c-3.226-2.911-6.611-5.487-10.147-7.727c-3.538-2.237-7.312-4.033-11.317-5.386c-4.007-1.351-8.352-2.03-13.035-2.03
		c-2.811,0-5.619,0.236-8.431,0.704c-2.809,0.468-5.36,1.326-7.647,2.576c-2.29,1.25-4.137,2.967-5.543,5.151
		c-1.404,2.185-2.106,4.943-2.106,8.274c0,3.537,0.442,6.61,1.327,9.21c0.882,2.602,3.095,5.05,6.633,7.336l37.467,25.446
		c6.868,4.894,12.436,9.757,16.704,14.596c4.266,4.84,7.595,9.656,9.99,14.44c2.394,4.788,4.032,9.499,4.918,14.127
		c0.882,4.632,1.326,9.188,1.326,13.661c0,7.283-1.197,14.152-3.591,20.605c-2.395,6.455-5.674,12.41-9.834,17.874
		c-4.163,5.464-9.031,10.358-14.596,14.674c-5.569,4.32-11.529,8.016-17.875,11.084c-6.349,3.068-12.934,5.41-19.749,7.024
		c-6.815,1.613-13.502,2.421-20.058,2.421c-5.1,0-10.124-0.078-15.065-0.234c-4.943-0.156-9.756-0.573-14.44-1.25
		c-4.684-0.678-9.21-1.717-13.582-3.121s-8.534-3.356-12.488-5.854L232.337,358.96z"/>
	<path fill="#6A8FCA" d="M502.82,324.026c-0.958,0.261-2.212,0.67-3.773,1.235c-1.562,0.563-3.079,0.846-4.554,0.846
		c-1.216,0-2.276-0.305-3.188-0.91c-0.909-0.607-1.365-1.647-1.365-3.121v-0.782c0.52-4.683,0.954-8.649,1.3-11.902
		c0.347-3.252,0.671-6.199,0.977-8.847c0.304-2.646,0.564-5.288,0.781-7.935c0.214-2.645,0.498-5.725,0.846-9.237
		c0.345-3.511,0.758-7.675,1.235-12.489c0.475-4.813,1.061-10.815,1.757-18.018c0.433-4.422,0.823-8.929,1.17-13.528
		c0.345-4.597,0.521-8.846,0.521-12.749c0-2.602-0.196-5.008-0.586-7.22c-0.391-2.212-1.087-4.118-2.082-5.723
		c-0.997-1.604-2.363-2.841-4.097-3.708c-1.738-0.865-3.948-1.301-6.636-1.301c-1.997,0-4.748,0.436-8.261,1.301
		c-3.513,0.867-7.006,2.299-10.472,4.293c-3.469,1.996-6.551,4.618-9.237,7.871c-2.688,3.252-4.208,7.266-4.553,12.033
		c-0.521,6.42-0.997,11.904-1.432,16.457c-0.436,4.553-0.825,8.413-1.17,11.578c-0.347,3.168-0.632,5.746-0.846,7.742
		c-0.217,1.996-0.37,3.688-0.455,5.072c-0.087,0.347-0.218,1.302-0.391,2.863c-0.176,1.561-0.37,3.428-0.586,5.594
		c-0.216,2.168-0.436,4.468-0.649,6.896c-0.218,2.427-0.436,4.729-0.65,6.894c-0.217,2.168-0.392,4.033-0.521,5.594
		c-0.131,1.561-0.195,2.518-0.195,2.861c0,0.697,0.02,1.281,0.064,1.757c0.044,0.477,0.065,0.932,0.065,1.366
		c0,0.695-0.326,1.281-0.976,1.757c-0.65,0.477-2.103,1.02-4.358,1.624l-34.474,11.839c-0.956,0.346-2.212,0.781-3.772,1.302
		s-3.079,0.779-4.553,0.779c-1.217,0-2.277-0.305-3.188-0.91c-0.911-0.607-1.366-1.647-1.366-3.121l11.839-132.952
		c0.26-2.863,0.585-4.834,0.975-5.92c0.391-1.084,1.366-1.799,2.927-2.146c7.891-1.562,16.002-3.142,24.327-4.749
		c8.326-1.604,16.436-3.663,24.328-6.179c0.693,0,1.105,0.11,1.235,0.326c0.13,0.216,0.194,0.542,0.194,0.975
		c0,0.175-0.021,0.436-0.064,0.78c-0.046,0.347-0.175,1.128-0.391,2.343c-0.217,1.216-0.521,3.056-0.911,5.528
		c-0.39,2.472-0.932,5.919-1.625,10.342c5.983-3.466,11.598-6.264,16.847-8.39c5.246-2.125,10.189-3.772,14.83-4.944
		c4.638-1.17,8.996-1.952,13.073-2.341c4.077-0.39,7.891-0.586,11.449-0.586c12.228,0,21.117,3.708,26.668,11.122
		c5.548,7.416,8.326,18.539,8.326,33.369c0,2.081-0.046,4.228-0.131,6.439c-0.086,2.21-0.26,4.488-0.521,6.829l-5.984,55.938
		c-0.436,3.643-0.695,7.007-0.78,10.083c-0.086,3.079-0.13,6.656-0.13,10.733c0,0.694,0.02,1.28,0.065,1.756
		c0.043,0.477,0.064,0.891,0.064,1.235c0,0.781-0.325,1.388-0.976,1.822c-0.65,0.436-2.103,0.997-4.357,1.689L502.82,324.026z"/>
</svg>
